{
  "accessors": [
    {
      "bufferView": 2,
      "componentType": 5126,
      "count": 440,
      "max": [
        1.326149821281433,
        -0.05458905175328255,
        0.1262381672859192
      ],
      "min": [
        0.3431447744369507,
        -1.457661509513855,
        -0.1262381672859192
      ],
      "type": "VEC3"
    },
    {
      "bufferView": 2,
      "byteOffset": 5280,
      "componentType": 5126,
      "count": 440,
      "max": [
        0.9942362904548645,
        0.9248755574226379,
        0.9999997615814209
      ],
      "min": [
        -0.9977455735206604,
        -0.9997645616531372,
        -0.9999997615814209
      ],
      "type": "VEC3"
    },
    {
      "bufferView": 3,
      "componentType": 5126,
      "count": 440,
      "max": [
        0.9734702110290527,
        0.7757636308670044,
        0.9985259771347046,
        1.0
      ],
      "min": [
        -0.0906236544251442,
        -0.3442222774028778,
        -0.9985262751579285,
        1.0
      ],
      "type": "VEC4"
    },
    {
      "bufferView": 1,
      "componentType": 5126,
      "count": 440,
      "max": [
        0.8260005712509155,
        0.999372661113739
      ],
      "min": [
        0.28962141275405884,
        0.28977781534194946
      ],
      "type": "VEC2"
    },
    {
      "bufferView": 0,
      "componentType": 5125,
      "count": 2244,
      "type": "SCALAR"
    },
    {
      "bufferView": 2,
      "byteOffset": 10560,
      "componentType": 5126,
      "count": 2919,
      "max": [
        1.2189244031906128,
        0.39914149045944214,
        0.25755223631858826
      ],
      "min": [
        -1.4175944328308105,
        -0.9433632493019104,
        -0.25756147503852844
      ],
      "type": "VEC3"
    },
    {
      "bufferView": 2,
      "byteOffset": 45588,
      "componentType": 5126,
      "count": 2919,
      "max": [
        1.0,
        1.0,
        1.0
      ],
      "min": [
        -1.0,
        -1.0,
        -1.0
      ],
      "type": "VEC3"
    },
    {
      "bufferView": 3,
      "byteOffset": 7040,
      "componentType": 5126,
      "count": 2919,
      "max": [
        1.0,
        1.0,
        1.0,
        1.0
      ],
      "min": [
        -1.0,
        -1.0,
        -1.0,
        1.0
      ],
      "type": "VEC4"
    },
    {
      "bufferView": 1,
      "byteOffset": 3520,
      "componentType": 5126,
      "count": 2919,
      "max": [
        0.9612639546394348,
        0.9659181833267212
      ],
      "min": [
        0.0006273359176702797,
        0.0006273359176702797
      ],
      "type": "VEC2"
    },
    {
      "bufferView": 0,
      "byteOffset": 8976,
      "componentType": 5125,
      "count": 10710,
      "type": "SCALAR"
    },
    {
      "bufferView": 2,
      "byteOffset": 80616,
      "componentType": 5126,
      "count": 269,
      "max": [
        0.2953152358531952,
        0.08002705872058868,
        0.06399908661842346
      ],
      "min": [
        -0.9468390941619873,
        -0.7082763314247131,
        -0.06399881839752197
      ],
      "type": "VEC3"
    },
    {
      "bufferView": 2,
      "byteOffset": 83844,
      "componentType": 5126,
      "count": 269,
      "max": [
        1.0,
        1.0,
        1.0
      ],
      "min": [
        -0.9978549480438232,
        -1.0,
        -1.0
      ],
      "type": "VEC3"
    },
    {
      "bufferView": 3,
      "byteOffset": 53744,
      "componentType": 5126,
      "count": 269,
      "max": [
        1.0,
        0.9980469346046448,
        0.9669143557548523,
        1.0
      ],
      "min": [
        -1.0,
        -0.9931990504264832,
        -0.9999922513961792,
        1.0
      ],
      "type": "VEC4"
    },
    {
      "bufferView": 1,
      "byteOffset": 26872,
      "componentType": 5126,
      "count": 269,
      "max": [
        0.946239173412323,
        0.8755831718444824
      ],
      "min": [
        0.23254439234733582,
        0.07650896161794662
      ],
      "type": "VEC2"
    },
    {
      "bufferView": 0,
      "byteOffset": 51816,
      "componentType": 5125,
      "count": 864,
      "type": "SCALAR"
    },
    {
      "bufferView": 2,
      "byteOffset": 87072,
      "componentType": 5126,
      "count": 174,
      "max": [
        0.7214604020118713,
        0.2447754293680191,
        0.14050424098968506
      ],
      "min": [
        0.3750934898853302,
        -0.1537085771560669,
        -0.04394887760281563
      ],
      "type": "VEC3"
    },
    {
      "bufferView": 2,
      "byteOffset": 89160,
      "componentType": 5126,
      "count": 174,
      "max": [
        0.9751385450363159,
        0.9999967813491821,
        1.0
      ],
      "min": [
        -0.882345974445343,
        -0.9997795820236206,
        -1.0
      ],
      "type": "VEC3"
    },
    {
      "bufferView": 3,
      "byteOffset": 58048,
      "componentType": 5126,
      "count": 174,
      "max": [
        0.4823053181171417,
        0.9932284951210022,
        1.0,
        1.0
      ],
      "min": [
        -0.49245166778564453,
        -0.9817631244659424,
        -1.0,
        1.0
      ],
      "type": "VEC4"
    },
    {
      "bufferView": 1,
      "byteOffset": 29024,
      "componentType": 5126,
      "count": 174,
      "max": [
        0.9508704543113708,
        0.9489585757255554
      ],
      "min": [
        0.23254439234733582,
        0.0006273359176702797
      ],
      "type": "VEC2"
    },
    {
      "bufferView": 0,
      "byteOffset": 55272,
      "componentType": 5125,
      "count": 456,
      "type": "SCALAR"
    },
    {
      "bufferView": 2,
      "byteOffset": 91248,
      "componentType": 5126,
      "count": 173,
      "max": [
        0.4374176859855652,
        0.40737876296043396,
        0.0745086595416069
      ],
      "min": [
        -0.2968689501285553,
        0.31049415469169617,
        -0.0745086595416069
      ],
      "type": "VEC3"
    },
    {
      "bufferView": 2,
      "byteOffset": 93324,
      "componentType": 5126,
      "count": 173,
      "max": [
        1.0,
        1.0,
        1.0
      ],
      "min": [
        -1.0,
        -1.0,
        -1.0
      ],
      "type": "VEC3"
    },
    {
      "bufferView": 3,
      "byteOffset": 60832,
      "componentType": 5126,
      "count": 173,
      "max": [
        1.0,
        1.0,
        1.0,
        1.0
      ],
      "min": [
        -1.0,
        -1.0,
        -1.0,
        1.0
      ],
      "type": "VEC4"
    },
    {
      "bufferView": 1,
      "byteOffset": 30416,
      "componentType": 5126,
      "count": 173,
      "max": [
        0.9424648880958557,
        0.9403690695762634
      ],
      "min": [
        0.2506672143936157,
        0.0006273359176702797
      ],
      "type": "VEC2"
    },
    {
      "bufferView": 0,
      "byteOffset": 57096,
      "componentType": 5125,
      "count": 420,
      "type": "SCALAR"
    }
  ],
  "asset": {
    "extras": {
      "author": "SchrisArt (https://sketchfab.com/SchrisArt)",
      "license": "CC-BY-4.0 (http://creativecommons.org/licenses/by/4.0/)",
      "source": "https://sketchfab.com/3d-models/smith-wesson-revolver-m625-073b7ba2570b4ebca78c87dc9b9a8184",
      "title": "Smith & Wesson Revolver M625"
    },
    "generator": "Sketchfab-12.63.0",
    "version": "2.0"
  },
  "bufferViews": [
    {
      "buffer": 0,
      "byteLength": 58776,
      "name": "floatBufferViews",
      "target": 34963
    },
    {
      "buffer": 0,
      "byteLength": 31800,
      "byteOffset": 58776,
      "byteStride": 8,
      "name": "floatBufferViews",
      "target": 34962
    },
    {
      "buffer": 0,
      "byteLength": 95400,
      "byteOffset": 90576,
      "byteStride": 12,
      "name": "floatBufferViews",
      "target": 34962
    },
    {
      "buffer": 0,
      "byteLength": 63600,
      "byteOffset": 185976,
      "byteStride": 16,
      "name": "floatBufferViews",
      "target": 34962
    }
  ],
  "buffers": [
    {
      "byteLength": 249576,
      "uri": "scene.bin"
    }
  ],
  "images": [
    {
      "uri": "textures/Wood_baseColor.jpeg"
    },
    {
      "uri": "textures/Wood_metallicRoughness.png"
    },
    {
      "uri": "textures/Wood_normal.png"
    },
    {
      "uri": "textures/Metal_baseColor.png"
    },
    {
      "uri": "textures/Metal_metallicRoughness.png"
    },
    {
      "uri": "textures/Metal_normal.png"
    },
    {
      "uri": "textures/Metal_2_baseColor.png"
    },
    {
      "uri": "textures/Metal_2_metallicRoughness.png"
    },
    {
      "uri": "textures/Metal_2_normal.png"
    },
    {
      "uri": "textures/Metal_3_baseColor.png"
    },
    {
      "uri": "textures/Metal_3_metallicRoughness.png"
    },
    {
      "uri": "textures/Metal_3_normal.png"
    },
    {
      "uri": "textures/Plastic_baseColor.png"
    },
    {
      "uri": "textures/Plastic_metallicRoughness.png"
    },
    {
      "uri": "textures/Plastic_normal.png"
    }
  ],
  "materials": [
    {
      "doubleSided": true,
      "name": "Wood",
      "normalTexture": {
        "index": 2
      },
      "pbrMetallicRoughness": {
        "baseColorTexture": {
          "index": 0
        },
        "metallicRoughnessTexture": {
          "index": 1
        }
      }
    },
    {
      "alphaMode": "BLEND",
      "doubleSided": true,
      "name": "Metal",
      "normalTexture": {
        "index": 5
      },
      "occlusionTexture": {
        "index": 4
      },
      "pbrMetallicRoughness": {
        "baseColorTexture": {
          "index": 3
        },
        "metallicRoughnessTexture": {
          "index": 4
        }
      }
    },
    {
      "alphaMode": "BLEND",
      "doubleSided": true,
      "name": "Metal_2",
      "normalTexture": {
        "index": 8
      },
      "occlusionTexture": {
        "index": 7
      },
      "pbrMetallicRoughness": {
        "baseColorTexture": {
          "index": 6
        },
        "metallicRoughnessTexture": {
          "index": 7
        }
      }
    },
    {
      "alphaMode": "BLEND",
      "doubleSided": true,
      "name": "Metal_3",
      "normalTexture": {
        "index": 11
      },
      "occlusionTexture": {
        "index": 10
      },
      "pbrMetallicRoughness": {
        "baseColorTexture": {
          "index": 9
        },
        "metallicRoughnessTexture": {
          "index": 10
        }
      }
    },
    {
      "alphaMode": "BLEND",
      "doubleSided": true,
      "name": "Plastic",
      "normalTexture": {
        "index": 14
      },
      "occlusionTexture": {
        "index": 13
      },
      "pbrMetallicRoughness": {
        "baseColorTexture": {
          "index": 12
        },
        "metallicRoughnessTexture": {
          "index": 13
        }
      }
    }
  ],
  "meshes": [
    {
      "name": "Object_0",
      "primitives": [
        {
          "attributes": {
            "NORMAL": 1,
            "POSITION": 0,
            "TANGENT": 2,
            "TEXCOORD_0": 3
          },
          "indices": 4,
          "material": 0,
          "mode": 4
        }
      ]
    },
    {
      "name": "Object_1",
      "primitives": [
        {
          "attributes": {
            "NORMAL": 6,
            "POSITION": 5,
            "TANGENT": 7,
            "TEXCOORD_0": 8
          },
          "indices": 9,
          "material": 1,
          "mode": 4
        }
      ]
    },
    {
      "name": "Object_2",
      "primitives": [
        {
          "attributes": {
            "NORMAL": 11,
            "POSITION": 10,
            "TANGENT": 12,
            "TEXCOORD_0": 13
          },
          "indices": 14,
          "material": 2,
          "mode": 4
        }
      ]
    },
    {
      "name": "Object_3",
      "primitives": [
        {
          "attributes": {
            "NORMAL": 16,
            "POSITION": 15,
            "TANGENT": 17,
            "TEXCOORD_0": 18
          },
          "indices": 19,
          "material": 3,
          "mode": 4
        }
      ]
    },
    {
      "name": "Object_4",
      "primitives": [
        {
          "attributes": {
            "NORMAL": 21,
            "POSITION": 20,
            "TANGENT": 22,
            "TEXCOORD_0": 23
          },
          "indices": 24,
          "material": 4,
          "mode": 4
        }
      ]
    }
  ],
  "nodes": [
    {
      "children": [
        1
      ],
      "matrix": [
        1.0,
        0.0,
        0.0,
        0.0,
        0.0,
        2.220446049250313e-16,
        -1.0,
        0.0,
        0.0,
        1.0,
        2.220446049250313e-16,
        0.0,
        0.0,
        0.0,
        0.0,
        1.0
      ],
      "name": "Sketchfab_model"
    },
    {
      "children": [
        2
      ],
      "name": "root"
    },
    {
      "children": [
        3
      ],
      "matrix": [
        1.0,
        0.0,
        0.0,
        0.0,
        0.0,
        2.220446049250313e-16,
        1.0,
        0.0,
        0.0,
        -1.0,
        2.220446049250313e-16,
        0.0,
        0.0,
        0.0,
        0.0,
        1.0
      ],
      "name": "GLTF_SceneRootNode"
    },
    {
      "children": [
        4,
        5,
        6,
        7,
        8
      ],
      "matrix": [
        1.0,
        0.0,
        0.0,
        0.0,
        0.0,
        1.0,
        0.0,
        0.0,
        0.0,
        0.0,
        1.0,
        0.0,
        -0.38707342743873596,
        0.2587417960166931,
        0.0,
        1.0
      ],
      "name": "Frame_0"
    },
    {
      "mesh": 0,
      "name": "Object_4"
    },
    {
      "mesh": 1,
      "name": "Object_5"
    },
    {
      "mesh": 2,
      "name": "Object_6"
    },
    {
      "mesh": 3,
      "name": "Object_7"
    },
    {
      "mesh": 4,
      "name": "Object_8"
    }
  ],
  "samplers": [
    {
      "magFilter": 9729,
      "minFilter": 9987,
      "wrapS": 10497,
      "wrapT": 10497
    }
  ],
  "scene": 0,
  "scenes": [
    {
      "name": "Sketchfab_Scene",
      "nodes": [
        0
      ]
    }
  ],
  "textures": [
    {
      "sampler": 0,
      "source": 0
    },
    {
      "sampler": 0,
      "source": 1
    },
    {
      "sampler": 0,
      "source": 2
    },
    {
      "sampler": 0,
      "source": 3
    },
    {
      "sampler": 0,
      "source": 4
    },
    {
      "sampler": 0,
      "source": 5
    },
    {
      "sampler": 0,
      "source": 6
    },
    {
      "sampler": 0,
      "source": 7
    },
    {
      "sampler": 0,
      "source": 8
    },
    {
      "sampler": 0,
      "source": 9
    },
    {
      "sampler": 0,
      "source": 10
    },
    {
      "sampler": 0,
      "source": 11
    },
    {
      "sampler": 0,
      "source": 12
    },
    {
      "sampler": 0,
      "source": 13
    },
    {
      "sampler": 0,
      "source": 14
    }
  ]
}
