{
  "accessors": [
    {
      "bufferView": 2,
      "componentType": 5126,
      "count": 9743,
      "max": [
        5.329432964324951,
        17.068077087402344,
        15.62833023071289
      ],
      "min": [
        -6.742403030395508,
        -15.550657272338867,
        -46.37499237060547
      ],
      "type": "VEC3"
    },
    {
      "bufferView": 2,
      "byteOffset": 116916,
      "componentType": 5126,
      "count": 9743,
      "max": [
        1.0,
        1.0,
        1.0
      ],
      "min": [
        -1.0,
        -1.0,
        -1.0
      ],
      "type": "VEC3"
    },
    {
      "bufferView": 1,
      "componentType": 5126,
      "count": 9743,
      "max": [
        0.9566699862480164,
        0.9606050252914429
      ],
      "min": [
        0.004999999888241291,
        0.004999999888241291
      ],
      "type": "VEC2"
    },
    {
      "bufferView": 0,
      "componentType": 5125,
      "count": 37482,
      "type": "SCALAR"
    },
    {
      "bufferView": 2,
      "byteOffset": 233832,
      "componentType": 5126,
      "count": 5054,
      "max": [
        7.223621845245361,
        7.005699157714844,
        3.097170114517212
      ],
      "min": [
        -4.706334114074707,
        1.9565579891204834,
        -46.37499237060547
      ],
      "type": "VEC3"
    },
    {
      "bufferView": 2,
      "byteOffset": 294480,
      "componentType": 5126,
      "count": 5054,
      "max": [
        1.0,
        1.0,
        1.0
      ],
      "min": [
        -1.0,
        -1.0,
        -1.0
      ],
      "type": "VEC3"
    },
    {
      "bufferView": 1,
      "byteOffset": 77944,
      "componentType": 5126,
      "count": 5054,
      "max": [
        0.9598060250282288,
        0.9647769927978516
      ],
      "min": [
        0.019387999549508095,
        0.0593549981713295
      ],
      "type": "VEC2"
    },
    {
      "bufferView": 0,
      "byteOffset": 149928,
      "componentType": 5125,
      "count": 24042,
      "type": "SCALAR"
    },
    {
      "bufferView": 2,
      "byteOffset": 355128,
      "componentType": 5126,
      "count": 10364,
      "max": [
        8.217867851257324,
        10.977636337280273,
        -1.7151410579681396
      ],
      "min": [
        6.286406993865967,
        0.7032889723777771,
        -6.107117176055908
      ],
      "type": "VEC3"
    },
    {
      "bufferView": 2,
      "byteOffset": 479496,
      "componentType": 5126,
      "count": 10364,
      "max": [
        1.0,
        1.0,
        1.0
      ],
      "min": [
        -1.0,
        -1.0,
        -1.0
      ],
      "type": "VEC3"
    },
    {
      "bufferView": 1,
      "byteOffset": 118376,
      "componentType": 5126,
      "count": 10364,
      "max": [
        0.9637939929962158,
        0.958296000957489
      ],
      "min": [
        0.004999999888241291,
        0.004999999888241291
      ],
      "type": "VEC2"
    },
    {
      "bufferView": 0,
      "byteOffset": 246096,
      "componentType": 5125,
      "count": 38670,
      "type": "SCALAR"
    },
    {
      "bufferView": 2,
      "byteOffset": 603864,
      "componentType": 5126,
      "count": 8165,
      "max": [
        5.463675022125244,
        40.19932556152344,
        16.385669708251953
      ],
      "min": [
        -6.876645088195801,
        -36.30906677246094,
        -65.37103271484375
      ],
      "type": "VEC3"
    },
    {
      "bufferView": 2,
      "byteOffset": 701844,
      "componentType": 5126,
      "count": 8165,
      "max": [
        1.0,
        1.0,
        1.0
      ],
      "min": [
        -1.0,
        -1.0,
        -1.0
      ],
      "type": "VEC3"
    },
    {
      "bufferView": 1,
      "byteOffset": 201288,
      "componentType": 5126,
      "count": 8165,
      "max": [
        0.9173189997673035,
        0.9861630201339722
      ],
      "min": [
        0.004999999888241291,
        0.004999999888241291
      ],
      "type": "VEC2"
    },
    {
      "bufferView": 0,
      "byteOffset": 400776,
      "componentType": 5125,
      "count": 36888,
      "type": "SCALAR"
    },
    {
      "bufferView": 2,
      "byteOffset": 799824,
      "componentType": 5126,
      "count": 34524,
      "max": [
        4.761122226715088,
        -36.23894500732422,
        10.506465911865234
      ],
      "min": [
        -6.191474914550781,
        -50.64530944824219,
        -0.4460639953613281
      ],
      "type": "VEC3"
    },
    {
      "bufferView": 2,
      "byteOffset": 1214112,
      "componentType": 5126,
      "count": 34524,
      "max": [
        1.0,
        1.0,
        1.0
      ],
      "min": [
        -1.0,
        -1.0,
        -1.0
      ],
      "type": "VEC3"
    },
    {
      "bufferView": 1,
      "byteOffset": 266608,
      "componentType": 5126,
      "count": 34524,
      "max": [
        0.9752900004386902,
        0.9941390156745911
      ],
      "min": [
        0.004999999888241291,
        0.004999999888241291
      ],
      "type": "VEC2"
    },
    {
      "bufferView": 0,
      "byteOffset": 548328,
      "componentType": 5125,
      "count": 122628,
      "type": "SCALAR"
    },
    {
      "bufferView": 2,
      "byteOffset": 1628400,
      "componentType": 5126,
      "count": 5806,
      "max": [
        3.5229060649871826,
        39.822059631347656,
        25.71155548095703
      ],
      "min": [
        -4.93587589263916,
        -35.20246124267578,
        15.204959869384766
      ],
      "type": "VEC3"
    },
    {
      "bufferView": 2,
      "byteOffset": 1698072,
      "componentType": 5126,
      "count": 5806,
      "max": [
        1.0,
        1.0,
        1.0
      ],
      "min": [
        -1.0,
        -1.0,
        -1.0
      ],
      "type": "VEC3"
    },
    {
      "bufferView": 1,
      "byteOffset": 542800,
      "componentType": 5126,
      "count": 5806,
      "max": [
        0.9815199971199036,
        0.9869009852409363
      ],
      "min": [
        0.004999999888241291,
        0.004999999888241291
      ],
      "type": "VEC2"
    },
    {
      "bufferView": 0,
      "byteOffset": 1038840,
      "componentType": 5125,
      "count": 21132,
      "type": "SCALAR"
    },
    {
      "bufferView": 2,
      "byteOffset": 1767744,
      "componentType": 5126,
      "count": 5791,
      "max": [
        11.265054702758789,
        35.87590789794922,
        22.324600219726563
      ],
      "min": [
        -5.26140022277832,
        -18.693031311035156,
        11.661806106567383
      ],
      "type": "VEC3"
    },
    {
      "bufferView": 2,
      "byteOffset": 1837236,
      "componentType": 5126,
      "count": 5791,
      "max": [
        1.0,
        1.0,
        1.0
      ],
      "min": [
        -1.0,
        -1.0,
        -1.0
      ],
      "type": "VEC3"
    },
    {
      "bufferView": 1,
      "byteOffset": 589248,
      "componentType": 5126,
      "count": 5791,
      "max": [
        0.8763480186462402,
        0.8868280053138733
      ],
      "min": [
        0.054558999836444855,
        0.014592000283300877
      ],
      "type": "VEC2"
    },
    {
      "bufferView": 0,
      "byteOffset": 1123368,
      "componentType": 5125,
      "count": 26634,
      "type": "SCALAR"
    },
    {
      "bufferView": 2,
      "byteOffset": 1906728,
      "componentType": 5126,
      "count": 5075,
      "max": [
        11.042952537536621,
        13.865875244140625,
        16.844223022460938
      ],
      "min": [
        -7.909666061401367,
        -24.32752227783203,
        -5.299465179443359
      ],
      "type": "VEC3"
    },
    {
      "bufferView": 2,
      "byteOffset": 1967628,
      "componentType": 5126,
      "count": 5075,
      "max": [
        1.0,
        1.0,
        1.0
      ],
      "min": [
        -1.0,
        -1.0,
        -1.0
      ],
      "type": "VEC3"
    },
    {
      "bufferView": 1,
      "byteOffset": 635576,
      "componentType": 5126,
      "count": 5075,
      "max": [
        0.8932710289955139,
        0.9170809984207153
      ],
      "min": [
        0.040171001106500626,
        0.004999999888241291
      ],
      "type": "VEC2"
    },
    {
      "bufferView": 0,
      "byteOffset": 1229904,
      "componentType": 5125,
      "count": 23358,
      "type": "SCALAR"
    },
    {
      "bufferView": 2,
      "byteOffset": 2028528,
      "componentType": 5126,
      "count": 16258,
      "max": [
        6.1662750244140625,
        40.19932556152344,
        22.484054565429688
      ],
      "min": [
        -7.5792460441589355,
        -48.57160186767578,
        -45.738582611083984
      ],
      "type": "VEC3"
    },
    {
      "bufferView": 2,
      "byteOffset": 2223624,
      "componentType": 5126,
      "count": 16258,
      "max": [
        1.0,
        1.0,
        1.0
      ],
      "min": [
        -1.0,
        -1.0,
        -1.0
      ],
      "type": "VEC3"
    },
    {
      "bufferView": 1,
      "byteOffset": 676176,
      "componentType": 5126,
      "count": 16258,
      "max": [
        0.9950000047683716,
        0.8618819713592529
      ],
      "min": [
        0.004999999888241291,
        0.004999999888241291
      ],
      "type": "VEC2"
    },
    {
      "bufferView": 0,
      "byteOffset": 1323336,
      "componentType": 5125,
      "count": 69246,
      "type": "SCALAR"
    },
    {
      "bufferView": 2,
      "byteOffset": 2418720,
      "componentType": 5126,
      "count": 9135,
      "max": [
        6.4966959953308105,
        31.51970672607422,
        22.54616928100586
      ],
      "min": [
        -6.733230113983154,
        -35.86248016357422,
        -5.299471855163574
      ],
      "type": "VEC3"
    },
    {
      "bufferView": 2,
      "byteOffset": 2528340,
      "componentType": 5126,
      "count": 9135,
      "max": [
        1.0,
        1.0,
        1.0
      ],
      "min": [
        -1.0,
        -1.0,
        -1.0
      ],
      "type": "VEC3"
    },
    {
      "bufferView": 1,
      "byteOffset": 806240,
      "componentType": 5126,
      "count": 9135,
      "max": [
        0.905348002910614,
        0.9090870022773743
      ],
      "min": [
        0.025783000513911247,
        0.0481639988720417
      ],
      "type": "VEC2"
    },
    {
      "bufferView": 0,
      "byteOffset": 1600320,
      "componentType": 5125,
      "count": 40848,
      "type": "SCALAR"
    },
    {
      "bufferView": 2,
      "byteOffset": 2637960,
      "componentType": 5126,
      "count": 25336,
      "max": [
        5.877184867858887,
        34.179237365722656,
        20.627944946289063
      ],
      "min": [
        -7.290130138397217,
        -21.08002471923828,
        -1.7117040157318115
      ],
      "type": "VEC3"
    },
    {
      "bufferView": 2,
      "byteOffset": 2941992,
      "componentType": 5126,
      "count": 25336,
      "max": [
        1.0,
        1.0,
        1.0
      ],
      "min": [
        -1.0,
        -1.0,
        -1.0
      ],
      "type": "VEC3"
    },
    {
      "bufferView": 1,
      "byteOffset": 879320,
      "componentType": 5126,
      "count": 25336,
      "max": [
        0.9719740152359009,
        0.9753389954566956
      ],
      "min": [
        0.004999999888241291,
        0.004999999888241291
      ],
      "type": "VEC2"
    },
    {
      "bufferView": 0,
      "byteOffset": 1763712,
      "componentType": 5125,
      "count": 91500,
      "type": "SCALAR"
    },
    {
      "bufferView": 2,
      "byteOffset": 3246024,
      "componentType": 5126,
      "count": 9354,
      "max": [
        6.737914085388184,
        31.51970672607422,
        2.4893040657043457
      ],
      "min": [
        -8.200748443603516,
        -35.279762268066406,
        -5.299471855163574
      ],
      "type": "VEC3"
    },
    {
      "bufferView": 2,
      "byteOffset": 3358272,
      "componentType": 5126,
      "count": 9354,
      "max": [
        1.0,
        0.9974718689918518,
        0.9998497366905212
      ],
      "min": [
        -1.0,
        -0.9974749088287354,
        -0.9994301199913025
      ],
      "type": "VEC3"
    },
    {
      "bufferView": 1,
      "byteOffset": 1082008,
      "componentType": 5126,
      "count": 9354,
      "max": [
        0.9233980178833008,
        0.9170809984207153
      ],
      "min": [
        0.020987000316381454,
        0.03697400167584419
      ],
      "type": "VEC2"
    },
    {
      "bufferView": 0,
      "byteOffset": 2129712,
      "componentType": 5125,
      "count": 48144,
      "type": "SCALAR"
    },
    {
      "bufferView": 2,
      "byteOffset": 3470520,
      "componentType": 5126,
      "count": 3750,
      "max": [
        4.580254077911377,
        22.968101501464844,
        13.638362884521484
      ],
      "min": [
        -8.093098640441895,
        -32.828826904296875,
        -4.910041809082031
      ],
      "type": "VEC3"
    },
    {
      "bufferView": 2,
      "byteOffset": 3515520,
      "componentType": 5126,
      "count": 3750,
      "max": [
        1.0,
        1.0,
        1.0
      ],
      "min": [
        -1.0,
        -1.0,
        -1.0
      ],
      "type": "VEC3"
    },
    {
      "bufferView": 1,
      "byteOffset": 1156840,
      "componentType": 5126,
      "count": 3750,
      "max": [
        0.9230949878692627,
        0.9143890142440796
      ],
      "min": [
        0.004999999888241291,
        0.004999999888241291
      ],
      "type": "VEC2"
    },
    {
      "bufferView": 0,
      "byteOffset": 2322288,
      "componentType": 5125,
      "count": 18900,
      "type": "SCALAR"
    }
  ],
  "asset": {
    "extras": {
      "author": "Pieter Ferreira (https://sketchfab.com/Badboy17Aiden)",
      "license": "CC-BY-4.0 (http://creativecommons.org/licenses/by/4.0/)",
      "source": "https://sketchfab.com/3d-models/uzi-v2-a32982e401db47dba813441079f5ec65",
      "title": "Uzi v2"
    },
    "generator": "Sketchfab-15.49.0",
    "version": "2.0"
  },
  "bufferViews": [
    {
      "buffer": 0,
      "byteLength": 2397888,
      "name": "floatBufferViews",
      "target": 34963
    },
    {
      "buffer": 0,
      "byteLength": 1186840,
      "byteOffset": 2397888,
      "byteStride": 8,
      "name": "floatBufferViews",
      "target": 34962
    },
    {
      "buffer": 0,
      "byteLength": 3560520,
      "byteOffset": 3584728,
      "byteStride": 12,
      "name": "floatBufferViews",
      "target": 34962
    }
  ],
  "buffers": [
    {
      "byteLength": 7145248,
      "uri": "scene.bin"
    }
  ],
  "extensionsUsed": [
    "KHR_materials_specular"
  ],
  "images": [
    {
      "uri": "textures/Material__90_baseColor.png"
    },
    {
      "uri": "textures/Material__90_metallicRoughness.png"
    },
    {
      "uri": "textures/Material__90_specularf0.png"
    }
  ],
  "materials": [
    {
      "doubleSided": true,
      "extensions": {
        "KHR_materials_specular": {
          "specularColorFactor": [
            1.0,
            1.0,
            1.0
          ],
          "specularFactor": 1.0,
          "specularTexture": {
            "index": 2
          }
        }
      },
      "name": "Material__90",
      "occlusionTexture": {
        "index": 1
      },
      "pbrMetallicRoughness": {
        "baseColorTexture": {
          "index": 0
        },
        "metallicRoughnessTexture": {
          "index": 1
        }
      }
    }
  ],
  "meshes": [
    {
      "name": "Object_0",
      "primitives": [
        {
          "attributes": {
            "NORMAL": 1,
            "POSITION": 0,
            "TEXCOORD_0": 2
          },
          "indices": 3,
          "material": 0,
          "mode": 4
        }
      ]
    },
    {
      "name": "Object_1",
      "primitives": [
        {
          "attributes": {
            "NORMAL": 5,
            "POSITION": 4,
            "TEXCOORD_0": 6
          },
          "indices": 7,
          "material": 0,
          "mode": 4
        }
      ]
    },
    {
      "name": "Object_2",
      "primitives": [
        {
          "attributes": {
            "NORMAL": 9,
            "POSITION": 8,
            "TEXCOORD_0": 10
          },
          "indices": 11,
          "material": 0,
          "mode": 4
        }
      ]
    },
    {
      "name": "Object_3",
      "primitives": [
        {
          "attributes": {
            "NORMAL": 13,
            "POSITION": 12,
            "TEXCOORD_0": 14
          },
          "indices": 15,
          "material": 0,
          "mode": 4
        }
      ]
    },
    {
      "name": "Object_4",
      "primitives": [
        {
          "attributes": {
            "NORMAL": 17,
            "POSITION": 16,
            "TEXCOORD_0": 18
          },
          "indices": 19,
          "material": 0,
          "mode": 4
        }
      ]
    },
    {
      "name": "Object_5",
      "primitives": [
        {
          "attributes": {
            "NORMAL": 21,
            "POSITION": 20,
            "TEXCOORD_0": 22
          },
          "indices": 23,
          "material": 0,
          "mode": 4
        }
      ]
    },
    {
      "name": "Object_6",
      "primitives": [
        {
          "attributes": {
            "NORMAL": 25,
            "POSITION": 24,
            "TEXCOORD_0": 26
          },
          "indices": 27,
          "material": 0,
          "mode": 4
        }
      ]
    },
    {
      "name": "Object_7",
      "primitives": [
        {
          "attributes": {
            "NORMAL": 29,
            "POSITION": 28,
            "TEXCOORD_0": 30
          },
          "indices": 31,
          "material": 0,
          "mode": 4
        }
      ]
    },
    {
      "name": "Object_8",
      "primitives": [
        {
          "attributes": {
            "NORMAL": 33,
            "POSITION": 32,
            "TEXCOORD_0": 34
          },
          "indices": 35,
          "material": 0,
          "mode": 4
        }
      ]
    },
    {
      "name": "Object_9",
      "primitives": [
        {
          "attributes": {
            "NORMAL": 37,
            "POSITION": 36,
            "TEXCOORD_0": 38
          },
          "indices": 39,
          "material": 0,
          "mode": 4
        }
      ]
    },
    {
      "name": "Object_10",
      "primitives": [
        {
          "attributes": {
            "NORMAL": 41,
            "POSITION": 40,
            "TEXCOORD_0": 42
          },
          "indices": 43,
          "material": 0,
          "mode": 4
        }
      ]
    },
    {
      "name": "Object_11",
      "primitives": [
        {
          "attributes": {
            "NORMAL": 45,
            "POSITION": 44,
            "TEXCOORD_0": 46
          },
          "indices": 47,
          "material": 0,
          "mode": 4
        }
      ]
    },
    {
      "name": "Object_12",
      "primitives": [
        {
          "attributes": {
            "NORMAL": 49,
            "POSITION": 48,
            "TEXCOORD_0": 50
          },
          "indices": 51,
          "material": 0,
          "mode": 4
        }
      ]
    }
  ],
  "nodes": [
    {
      "children": [
        1
      ],
      "matrix": [
        0.021837914362549782,
        0.0,
        0.0,
        0.0,
        0.0,
        4.848991067019033e-18,
        -0.021837914362549782,
        0.0,
        0.0,
        0.021837914362549782,
        4.848991067019033e-18,
        0.0,
        0.0,
        0.0,
        0.0,
        1.0
      ],
      "name": "Sketchfab_model"
    },
    {
      "children": [
        2,
        3,
        4,
        5,
        6,
        7,
        8,
        9,
        10,
        11,
        12,
        13,
        14
      ],
      "name": "uzi latest.obj.cleaner.materialmerger.gles"
    },
    {
      "mesh": 0,
      "name": "Object_2"
    },
    {
      "mesh": 1,
      "name": "Object_3"
    },
    {
      "mesh": 2,
      "name": "Object_4"
    },
    {
      "mesh": 3,
      "name": "Object_5"
    },
    {
      "mesh": 4,
      "name": "Object_6"
    },
    {
      "mesh": 5,
      "name": "Object_7"
    },
    {
      "mesh": 6,
      "name": "Object_8"
    },
    {
      "mesh": 7,
      "name": "Object_9"
    },
    {
      "mesh": 8,
      "name": "Object_10"
    },
    {
      "mesh": 9,
      "name": "Object_11"
    },
    {
      "mesh": 10,
      "name": "Object_12"
    },
    {
      "mesh": 11,
      "name": "Object_13"
    },
    {
      "mesh": 12,
      "name": "Object_14"
    }
  ],
  "samplers": [
    {
      "magFilter": 9729,
      "minFilter": 9987,
      "wrapS": 10497,
      "wrapT": 10497
    }
  ],
  "scene": 0,
  "scenes": [
    {
      "name": "Sketchfab_Scene",
      "nodes": [
        0
      ]
    }
  ],
  "textures": [
    {
      "sampler": 0,
      "source": 0
    },
    {
      "sampler": 0,
      "source": 1
    },
    {
      "sampler": 0,
      "source": 2
    }
  ]
}
